<?xml version="1.0" standalone="no"?>
<!DOCTYPE svg PUBLIC "-//W3C//DTD SVG 20010904//EN"
 "http://www.w3.org/TR/2001/REC-SVG-20010904/DTD/svg10.dtd">
<svg version="1.0" xmlns="http://www.w3.org/2000/svg"
 width="80.000000pt" height="80.000000pt" viewBox="0 0 80.000000 80.000000"
 preserveAspectRatio="xMidYMid meet">
<metadata>
Created by potrace 1.14, written by Peter Selinger 2001-2017
</metadata>
<g transform="translate(0.000000,80.000000) scale(0.100000,-0.100000)"
fill="#000000" stroke="none">
<path d="M223 664 c-57 -21 -129 -86 -156 -143 -32 -67 -31 -180 2 -245 45
-87 126 -143 225 -153 45 -5 48 -4 41 13 -10 23 -11 54 -1 75 6 14 -1 18 -39
24 -87 12 -152 97 -142 183 6 55 27 85 100 144 1 1 115 4 252 7 l250 6 0 50 0
50 -245 2 c-195 1 -254 -1 -287 -13z"/>
<path d="M293 444 c-16 -16 -21 -30 -17 -51 9 -50 21 -53 241 -53 190 0 203 1
213 19 5 11 10 32 10 48 0 58 -1 58 -222 58 -195 0 -204 0 -225 -21z"/>
<path d="M377 212 c-21 -23 -21 -41 -1 -70 28 -41 94 -16 94 36 0 47 -61 69
-93 34z"/>
<path d="M516 199 c-27 -39 13 -81 52 -54 24 17 23 42 -3 61 -25 19 -31 18
-49 -7z"/>
</g>
</svg>
